{"title":"Rise Of The Apes 2011 TS - PRESTiGE [ full details Provided ]","uid":6587376,"size":738498560,"categoryP":"video","categoryS":"movies","magnet":"?xt=urn:btih:1ff3dd09b1dd00f254ae46cc0c9820b0f1a2b7c8&amp;dn=Rise+Of+The+Apes+2011+TS+-+PRESTiGE+%5B+full+details+Provided+%5D&amp;tr=udp%3A%2F%2Ftracker.openbittorrent.com%3A80&amp;tr=udp%3A%2F%2Fopen.demonii.com%3A1337&amp;tr=udp%3A%2F%2Ftracker.coppersurfer.tk%3A6969&amp;tr=udp%3A%2F%2Fexodus.desync.com%3A6969","seeders":1,"leechers":0,"uploader":"ShihanMihiranga","files":1,"time":1312665278,"description":"Cover Page \n &lt;a href=&quot;\nhttp://freeimage.uphero.com/?v=nglxkiwuj.jpg&quot; rel=&quot;nofollow&quot; target=&quot;_NEW&quot;&gt;\nhttp://freeimage.uphero.com/?v=nglxkiwuj.jpg&lt;/a&gt;\n\n\nRise Of The Apes 2011 TS - PRESTiGE\n\n\nScreen Shorts \n &lt;a href=&quot;\nhttp://freeimage.uphero.com/?v=3405536398.png&quot; rel=&quot;nofollow&quot; target=&quot;_NEW&quot;&gt;\nhttp://freeimage.uphero.com/?v=3405536398.png&lt;/a&gt;\n &lt;a href=&quot;\nhttp://freeimage.uphero.com/?v=4645327757.png&quot; rel=&quot;nofollow&quot; target=&quot;_NEW&quot;&gt;\nhttp://freeimage.uphero.com/?v=4645327757.png&lt;/a&gt;\n &lt;a href=&quot;\nhttp://freeimage.uphero.com/?v=0187558589.png&quot; rel=&quot;nofollow&quot; target=&quot;_NEW&quot;&gt;\nhttp://freeimage.uphero.com/?v=0187558589.png&lt;/a&gt;\n\n\n\n\n\n\n File size : 704 MiB\n Duration : 1h 37mn\n Overall bit rate : 1 005 Kbps\n\n\n Video\n ID : 0\n Format : MPEG-4 Visual\n Format profile : Advanced Simple@L5\n Format settings, BVOP : 2\n Format settings, QPel : No\n Format settings, GMC : No warppoints\n Format settings, Matrix : Default (H.263)\n Muxing mode : Packed bitstream\n Codec ID : XVID\n Codec ID/Hint : XviD\n Duration : 1h 37mn\n Bit rate : 803 Kbps\n Width : 720 pixels\n Height : 320 pixels\n Display aspect ratio : 2.25:1\n Frame rate : 25.000 fps\n Color space : YUV\n Chroma subsampling : 4:2:0\n Bit depth : 8 bits\n Scan type : Progressive\n Compression mode : Lossy\n Bits/(Pixel*Frame) : 0.139\n Stream size : 563 MiB (80%)\n Writing library : XviD 64\n\n Audio\n ID : 1\n Format : AC-3\n Format/Info : Audio Coding 3\n Mode extension : CM (complete main)\n Codec ID : 2000\n Duration : 1h 37mn\n Bit rate mode : Constant\n Bit rate : 192 Kbps\n Channel(s) : 2 channels\n Channel positions : Front: L R\n Sampling rate : 48.0 KHz\n Bit depth : 16 bits\n Compression mode : Lossy\n Stream size : 135 MiB (19%)\n Alignment : Split accross interleaves\n Interleave, duration : 40 ms (1.00 video frame)\n Interleave, preload duration : 500 ms\n\n special mention for imagine for all work done \n &lt;a href=&quot;\nhttp://www.imdb.com/title/tt1318514/&quot; rel=&quot;nofollow&quot; target=&quot;_NEW&quot;&gt;\nhttp://www.imdb.com/title/tt1318514/&lt;/a&gt;","torrent":{"xt":"urn:btih:1ff3dd09b1dd00f254ae46cc0c9820b0f1a2b7c8","amp;dn":"Rise+Of+The+Apes+2011+TS+-+PRESTiGE+%5B+full+details+Provided+%5D","amp;tr":["udp%3A%2F%2Ftracker.openbittorrent.com%3A80","udp%3A%2F%2Fopen.demonii.com%3A1337","udp%3A%2F%2Ftracker.coppersurfer.tk%3A6969","udp%3A%2F%2Fexodus.desync.com%3A6969"],"infoHash":"1ff3dd09b1dd00f254ae46cc0c9820b0f1a2b7c8","infoHashBuffer":{"type":"Buffer","data":[31,243,221,9,177,221,0,242,84,174,70,204,12,152,32,176,241,162,183,200]},"announce":[],"urlList":[]}}